<?xml version="1.0" encoding="utf-8"?>
<!-- Generator: Adobe Illustrator 22.0.1, SVG Export Plug-In . SVG Version: 6.00 Build 0)  -->
<svg version="1.1" id="Layer_1" xmlns="http://www.w3.org/2000/svg" xmlns:xlink="http://www.w3.org/1999/xlink" x="0px" y="0px"
	 viewBox="0 0 30 30" style="enable-background:new 0 0 30 30;" xml:space="preserve">
<style type="text/css">
	.st0{fill:#1C7ED6;}
</style>
<path class="st0" d="M29.3,6.7c-0.7-3-3-5.3-6-6c-5.5-0.9-11.1-0.9-16.7,0c-3,0.7-5.3,3-6,6c-0.9,5.5-0.9,11.1,0,16.7
	c0.7,3,3,5.3,6,6c5.5,0.9,11.1,0.9,16.7,0c3-0.7,5.3-3,6-6C30.2,17.8,30.2,12.2,29.3,6.7z M14.4,15.8c-1.3,2.1-3,3.8-5.1,5.1
	c-1,0.6-2.4,0.3-3-0.7S6,17.9,7,17.3c0,0,0,0,0.1,0c1.1-0.7,2-1.5,2.8-2.5c-0.8-1-1.8-1.8-2.8-2.5c-1-0.6-1.4-2-0.8-3s2-1.4,3-0.8
	c2.1,1.3,3.8,3,5.1,5.1C14.8,14.3,14.8,15.2,14.4,15.8z M22.2,21h-5.4c-1,0-1.8-0.5-1.8-1.5s0.8-1.5,1.8-1.5h5.4
	c1,0,1.8,0.5,1.8,1.5S23.2,21,22.2,21z"/>
</svg>
